<?xml version="1.0" encoding="utf-8"?>
<!-- Generator: Adobe Illustrator 16.0.0, SVG Export Plug-In . SVG Version: 6.00 Build 0)  -->
<!DOCTYPE svg PUBLIC "-//W3C//DTD SVG 1.1//EN" "http://www.w3.org/Graphics/SVG/1.1/DTD/svg11.dtd">
<svg version="1.1" id="Layer_1" xmlns="http://www.w3.org/2000/svg" xmlns:xlink="http://www.w3.org/1999/xlink" x="0px" y="0px"
	 width="448px" height="448px" viewBox="32 33 448 448" enable-background="new 32 33 448 448" xml:space="preserve">
<g>
	<path fill="#CC1717" d="M256,33C132.3,33,32,133.3,32,257s100.3,224,224,224s224-100.3,224-224S379.7,33,256,33z M364.3,332.5
		c1.5,1.5,2.3,3.5,2.3,5.6c0,2.101-0.8,4.2-2.3,5.601l-21.6,21.7c-1.601,1.6-3.601,2.3-5.601,2.3s-4.1-0.8-5.6-2.3L256,289.8
		l-75.4,75.7c-1.5,1.6-3.6,2.3-5.6,2.3s-4.1-0.8-5.6-2.3l-21.6-21.7c-1.5-1.5-2.3-3.5-2.3-5.6c0-2.101,0.8-4.2,2.3-5.601l75.7-76
		l-75.9-75c-3.1-3.1-3.1-8.2,0-11.3l21.6-21.7c1.5-1.5,3.5-2.3,5.6-2.3c2.1,0,4.1,0.8,5.6,2.3l75.7,74.7l75.7-74.7
		c1.5-1.5,3.5-2.3,5.601-2.3c2.1,0,4.1,0.8,5.6,2.3l21.6,21.7c3.101,3.1,3.101,8.2,0,11.3l-75.899,75L364.3,332.5z"/>
</g>
</svg>
